M48
;DRILL file {KiCad 4.0.7} date 11/15/18 02:42:07
;FORMAT={2:4/ absolute / inch / keep zeros}
FMAT,2
INCH,TZ
T1C0.012
T2C0.024
T3C0.028
T4C0.039
T5C0.047
%
G90
G05
M72
T1
X000683Y005635
X000696Y010132
X000912Y010747
X000920Y004983
X001202Y004395
X001206Y011376
X001354Y008858
X001354Y008189
X001354Y007205
X001937Y008543
X001937Y007874
X001937Y007205
X001956Y009606
X001957Y006148
X002212Y010218
X002213Y005528
X002465Y004913
X002470Y010837
X002568Y003960
X002791Y012011
X003041Y003487
X003203Y011599
X003203Y004149
X003487Y012707
X003580Y010306
X003593Y008030
X003676Y012072
X003676Y003676
X003737Y002791
X003960Y013180
X004146Y012548
X004149Y003203
X004260Y008048
X004372Y001206
X004395Y014546
X004555Y013142
X004911Y002470
X004983Y014828
X005001Y000912
X005409Y005697
X005530Y002212
X005616Y000696
X005635Y015065
X006143Y001956
X006343Y006923
X006863Y014420
X006890Y001354
X007150Y007874
X007201Y011677
X007205Y012488
X007205Y001933
X007512Y008236
X007512Y007512
X007559Y001354
X007874Y008598
X007874Y007150
X007874Y001937
X008130Y014409
X008236Y008236
X008236Y007512
X008543Y001937
X008543Y001354
X008598Y007874
X008885Y014420
X009075Y013925
X009600Y001957
X009606Y013793
X010113Y000683
X010132Y015052
X010218Y013536
X010220Y002213
X010747Y014836
X010765Y000920
X010791Y010349
X010835Y002465
X010837Y013278
X011353Y001202
X011362Y005591
X011376Y014542
X011599Y012545
X011599Y003203
X011788Y002568
X012011Y012957
X012072Y012072
X012072Y003676
X012261Y003041
X012545Y004149
X012558Y011613
X012707Y012261
X012957Y003737
X013180Y011788
X013278Y004911
X013283Y010835
X013535Y010220
X013536Y005530
X013791Y009600
X013793Y006143
X013811Y008543
X013811Y007874
X013811Y007205
X014394Y008543
X014394Y007559
X014394Y006890
X014542Y004372
X014546Y011353
X014828Y010765
X014836Y005001
X015052Y005616
X015065Y010113
T2
X011465Y007799
X011752Y008209
X012039Y008618
X012326Y009028
X012612Y009437
T3
X003559Y005762
X003988Y006689
X005488Y004823
X006093Y010437
X008501Y012321
X009685Y008894
X009942Y005277
X010358Y010846
X010660Y005613
X011702Y009797
T4
X006575Y014980
X009173Y014980
T5
X006217Y011874
X007874Y007874
X009531Y011874
T0
M30
