G04 #@! TF.FileFunction,Soldermask,Bot*
%FSLAX46Y46*%
G04 Gerber Fmt 4.6, Leading zero omitted, Abs format (unit mm)*
G04 Created by KiCad (PCBNEW 4.0.7) date 11/15/18 02:42:05*
%MOMM*%
%LPD*%
G01*
G04 APERTURE LIST*
%ADD10C,0.100000*%
%ADD11R,2.501600X1.301600*%
%ADD12C,1.292600*%
%ADD13R,2.901600X1.301600*%
%ADD14R,2.501600X3.101600*%
%ADD15R,0.601600X0.701600*%
%ADD16R,1.001600X0.901600*%
%ADD17R,0.901600X1.001600*%
%ADD18R,1.001600X1.201600*%
%ADD19R,1.701600X0.701600*%
%ADD20R,1.701600X1.101600*%
%ADD21R,1.781600X1.821600*%
%ADD22R,1.301600X1.201600*%
%ADD23R,0.851600X0.701600*%
%ADD24R,0.851600X0.401600*%
%ADD25R,0.651600X0.401600*%
%ADD26R,0.501600X2.101600*%
%ADD27R,0.501600X1.951600*%
%ADD28R,1.101600X2.101600*%
%ADD29C,1.690600*%
%ADD30C,1.111600*%
G04 APERTURE END LIST*
D10*
D11*
X16510000Y12432501D03*
X16510000Y10475001D03*
X16510000Y8517501D03*
X16510000Y6560001D03*
D10*
G36*
X27146497Y21628259D02*
X26438259Y22336497D01*
X27287919Y23186157D01*
X27996157Y22477919D01*
X27146497Y21628259D01*
X27146497Y21628259D01*
G37*
G36*
X28419289Y22901051D02*
X27711051Y23609289D01*
X28560711Y24458949D01*
X29268949Y23750711D01*
X28419289Y22901051D01*
X28419289Y22901051D01*
G37*
D12*
X20000000Y20000000D03*
X24210000Y30160000D03*
X15790000Y30160000D03*
D13*
X13970000Y36280000D03*
X13970000Y33080000D03*
D14*
X16510000Y15500000D03*
D10*
G36*
X12632132Y11741030D02*
X14401030Y9972132D01*
X12207868Y7778970D01*
X10438970Y9547868D01*
X12632132Y11741030D01*
X12632132Y11741030D01*
G37*
G36*
X9917868Y10058970D02*
X8148970Y11827868D01*
X10342132Y14021030D01*
X12111030Y12252132D01*
X9917868Y10058970D01*
X9917868Y10058970D01*
G37*
D15*
X18580000Y16700000D03*
X18580000Y15600000D03*
X18580000Y14420476D03*
X18580000Y13320476D03*
X18580000Y12140952D03*
X18580000Y11040952D03*
X18580000Y9861428D03*
X18580000Y8761428D03*
X18580000Y7380000D03*
X18580000Y6280000D03*
D16*
X14690000Y19770000D03*
X14690000Y17970000D03*
D17*
X12250000Y16440000D03*
X14050000Y16440000D03*
D16*
X14690000Y22850000D03*
X14690000Y21050000D03*
D15*
X25850000Y37150000D03*
X25850000Y36050000D03*
D10*
G36*
X19130711Y23578949D02*
X19838949Y22870711D01*
X18989289Y22021051D01*
X18281051Y22729289D01*
X19130711Y23578949D01*
X19130711Y23578949D01*
G37*
G36*
X17857919Y22306157D02*
X18566157Y21597919D01*
X17716497Y20748259D01*
X17008259Y21456497D01*
X17857919Y22306157D01*
X17857919Y22306157D01*
G37*
G36*
X28202893Y31864655D02*
X27494655Y32572893D01*
X28344315Y33422553D01*
X29052553Y32714315D01*
X28202893Y31864655D01*
X28202893Y31864655D01*
G37*
G36*
X29475685Y33137447D02*
X28767447Y33845685D01*
X29617107Y34695345D01*
X30325345Y33987107D01*
X29475685Y33137447D01*
X29475685Y33137447D01*
G37*
G36*
X30959289Y16141051D02*
X30251051Y16849289D01*
X31100711Y17698949D01*
X31808949Y16990711D01*
X30959289Y16141051D01*
X30959289Y16141051D01*
G37*
G36*
X32232081Y17413843D02*
X31523843Y18122081D01*
X32373503Y18971741D01*
X33081741Y18263503D01*
X32232081Y17413843D01*
X32232081Y17413843D01*
G37*
G36*
X23898949Y24449289D02*
X23190711Y23741051D01*
X22341051Y24590711D01*
X23049289Y25298949D01*
X23898949Y24449289D01*
X23898949Y24449289D01*
G37*
G36*
X22626157Y25722081D02*
X21917919Y25013843D01*
X21068259Y25863503D01*
X21776497Y26571741D01*
X22626157Y25722081D01*
X22626157Y25722081D01*
G37*
D18*
X7300000Y16460000D03*
X7300000Y14660000D03*
X7250000Y24360000D03*
X7250000Y26160000D03*
D15*
X25000000Y37150000D03*
X25000000Y36050000D03*
D10*
G36*
X29178970Y27152132D02*
X30947868Y28921030D01*
X33141030Y26727868D01*
X31372132Y24958970D01*
X29178970Y27152132D01*
X29178970Y27152132D01*
G37*
G36*
X30949446Y12835418D02*
X30488695Y12374667D01*
X29285482Y13577880D01*
X29746233Y14038631D01*
X30949446Y12835418D01*
X30949446Y12835418D01*
G37*
G36*
X30383760Y12269732D02*
X29923009Y11808981D01*
X28719796Y13012194D01*
X29180547Y13472945D01*
X30383760Y12269732D01*
X30383760Y12269732D01*
G37*
G36*
X29818075Y11704047D02*
X29357324Y11243296D01*
X28154111Y12446509D01*
X28614862Y12907260D01*
X29818075Y11704047D01*
X29818075Y11704047D01*
G37*
G36*
X29252389Y11138362D02*
X28791638Y10677611D01*
X27588425Y11880824D01*
X28049176Y12341575D01*
X29252389Y11138362D01*
X29252389Y11138362D01*
G37*
G36*
X28686704Y10572676D02*
X28225953Y10111925D01*
X27022740Y11315138D01*
X27483491Y11775889D01*
X28686704Y10572676D01*
X28686704Y10572676D01*
G37*
G36*
X28121019Y10006991D02*
X27660268Y9546240D01*
X26457055Y10749453D01*
X26917806Y11210204D01*
X28121019Y10006991D01*
X28121019Y10006991D01*
G37*
G36*
X27555333Y9441305D02*
X27094582Y8980554D01*
X25891369Y10183767D01*
X26352120Y10644518D01*
X27555333Y9441305D01*
X27555333Y9441305D01*
G37*
G36*
X26989648Y8875620D02*
X26528897Y8414869D01*
X25325684Y9618082D01*
X25786435Y10078833D01*
X26989648Y8875620D01*
X26989648Y8875620D01*
G37*
G36*
X23735825Y8414869D02*
X23275074Y8875620D01*
X24478287Y10078833D01*
X24939038Y9618082D01*
X23735825Y8414869D01*
X23735825Y8414869D01*
G37*
G36*
X23170140Y8980554D02*
X22709389Y9441305D01*
X23912602Y10644518D01*
X24373353Y10183767D01*
X23170140Y8980554D01*
X23170140Y8980554D01*
G37*
G36*
X22604454Y9546240D02*
X22143703Y10006991D01*
X23346916Y11210204D01*
X23807667Y10749453D01*
X22604454Y9546240D01*
X22604454Y9546240D01*
G37*
G36*
X22038769Y10111925D02*
X21578018Y10572676D01*
X22781231Y11775889D01*
X23241982Y11315138D01*
X22038769Y10111925D01*
X22038769Y10111925D01*
G37*
G36*
X21473083Y10677611D02*
X21012332Y11138362D01*
X22215545Y12341575D01*
X22676296Y11880824D01*
X21473083Y10677611D01*
X21473083Y10677611D01*
G37*
G36*
X20907398Y11243296D02*
X20446647Y11704047D01*
X21649860Y12907260D01*
X22110611Y12446509D01*
X20907398Y11243296D01*
X20907398Y11243296D01*
G37*
G36*
X20341712Y11808981D02*
X19880961Y12269732D01*
X21084174Y13472945D01*
X21544925Y13012194D01*
X20341712Y11808981D01*
X20341712Y11808981D01*
G37*
G36*
X19776027Y12374667D02*
X19315276Y12835418D01*
X20518489Y14038631D01*
X20979240Y13577880D01*
X19776027Y12374667D01*
X19776027Y12374667D01*
G37*
G36*
X20979240Y14886028D02*
X20518489Y14425277D01*
X19315276Y15628490D01*
X19776027Y16089241D01*
X20979240Y14886028D01*
X20979240Y14886028D01*
G37*
G36*
X21544925Y15451713D02*
X21084174Y14990962D01*
X19880961Y16194175D01*
X20341712Y16654926D01*
X21544925Y15451713D01*
X21544925Y15451713D01*
G37*
G36*
X22110611Y16017398D02*
X21649860Y15556647D01*
X20446647Y16759860D01*
X20907398Y17220611D01*
X22110611Y16017398D01*
X22110611Y16017398D01*
G37*
G36*
X22676296Y16583084D02*
X22215545Y16122333D01*
X21012332Y17325546D01*
X21473083Y17786297D01*
X22676296Y16583084D01*
X22676296Y16583084D01*
G37*
G36*
X23241982Y17148769D02*
X22781231Y16688018D01*
X21578018Y17891231D01*
X22038769Y18351982D01*
X23241982Y17148769D01*
X23241982Y17148769D01*
G37*
G36*
X23807667Y17714455D02*
X23346916Y17253704D01*
X22143703Y18456917D01*
X22604454Y18917668D01*
X23807667Y17714455D01*
X23807667Y17714455D01*
G37*
G36*
X24373353Y18280140D02*
X23912602Y17819389D01*
X22709389Y19022602D01*
X23170140Y19483353D01*
X24373353Y18280140D01*
X24373353Y18280140D01*
G37*
G36*
X24939038Y18845826D02*
X24478287Y18385075D01*
X23275074Y19588288D01*
X23735825Y20049039D01*
X24939038Y18845826D01*
X24939038Y18845826D01*
G37*
G36*
X25786435Y18385075D02*
X25325684Y18845826D01*
X26528897Y20049039D01*
X26989648Y19588288D01*
X25786435Y18385075D01*
X25786435Y18385075D01*
G37*
G36*
X26352120Y17819389D02*
X25891369Y18280140D01*
X27094582Y19483353D01*
X27555333Y19022602D01*
X26352120Y17819389D01*
X26352120Y17819389D01*
G37*
G36*
X26917806Y17253704D02*
X26457055Y17714455D01*
X27660268Y18917668D01*
X28121019Y18456917D01*
X26917806Y17253704D01*
X26917806Y17253704D01*
G37*
G36*
X27483491Y16688018D02*
X27022740Y17148769D01*
X28225953Y18351982D01*
X28686704Y17891231D01*
X27483491Y16688018D01*
X27483491Y16688018D01*
G37*
G36*
X28049176Y16122333D02*
X27588425Y16583084D01*
X28791638Y17786297D01*
X29252389Y17325546D01*
X28049176Y16122333D01*
X28049176Y16122333D01*
G37*
G36*
X28614862Y15556647D02*
X28154111Y16017398D01*
X29357324Y17220611D01*
X29818075Y16759860D01*
X28614862Y15556647D01*
X28614862Y15556647D01*
G37*
G36*
X29180547Y14990962D02*
X28719796Y15451713D01*
X29923009Y16654926D01*
X30383760Y16194175D01*
X29180547Y14990962D01*
X29180547Y14990962D01*
G37*
G36*
X29746233Y14425277D02*
X29285482Y14886028D01*
X30488695Y16089241D01*
X30949446Y15628490D01*
X29746233Y14425277D01*
X29746233Y14425277D01*
G37*
G36*
X30074645Y17009249D02*
X29649249Y17434645D01*
X30145355Y17930751D01*
X30570751Y17505355D01*
X30074645Y17009249D01*
X30074645Y17009249D01*
G37*
G36*
X30852463Y17787067D02*
X30427067Y18212463D01*
X30923173Y18708569D01*
X31348569Y18283173D01*
X30852463Y17787067D01*
X30852463Y17787067D01*
G37*
G36*
X30313173Y19308569D02*
X30738569Y18883173D01*
X30242463Y18387067D01*
X29817067Y18812463D01*
X30313173Y19308569D01*
X30313173Y19308569D01*
G37*
G36*
X29535355Y18530751D02*
X29960751Y18105355D01*
X29464645Y17609249D01*
X29039249Y18034645D01*
X29535355Y18530751D01*
X29535355Y18530751D01*
G37*
G36*
X23610751Y8054645D02*
X23185355Y7629249D01*
X22689249Y8125355D01*
X23114645Y8550751D01*
X23610751Y8054645D01*
X23610751Y8054645D01*
G37*
G36*
X22832933Y8832463D02*
X22407537Y8407067D01*
X21911431Y8903173D01*
X22336827Y9328569D01*
X22832933Y8832463D01*
X22832933Y8832463D01*
G37*
D15*
X32290000Y21960000D03*
X32290000Y20860000D03*
D19*
X12650000Y18505000D03*
X12650000Y19775000D03*
X12650000Y21045000D03*
X12650000Y22315000D03*
D20*
X7150000Y22515000D03*
D19*
X7150000Y21045000D03*
X7150000Y19775000D03*
D20*
X7150000Y18305000D03*
D21*
X9770000Y24355000D03*
X9770000Y28485000D03*
D22*
X12620000Y26520000D03*
X12620000Y30020000D03*
D10*
G36*
X23173302Y25668231D02*
X23704763Y26199692D01*
X24879692Y25024763D01*
X24348231Y24493302D01*
X23173302Y25668231D01*
X23173302Y25668231D01*
G37*
G36*
X23845054Y26339982D02*
X24376515Y26871443D01*
X25551444Y25696514D01*
X25019983Y25165053D01*
X23845054Y26339982D01*
X23845054Y26339982D01*
G37*
G36*
X24516805Y27011734D02*
X25048266Y27543195D01*
X26223195Y26368266D01*
X25691734Y25836805D01*
X24516805Y27011734D01*
X24516805Y27011734D01*
G37*
G36*
X26425994Y25102545D02*
X26957455Y25634006D01*
X28132384Y24459077D01*
X27600923Y23927616D01*
X26425994Y25102545D01*
X26425994Y25102545D01*
G37*
G36*
X25082491Y23759042D02*
X25613952Y24290503D01*
X26788881Y23115574D01*
X26257420Y22584113D01*
X25082491Y23759042D01*
X25082491Y23759042D01*
G37*
D23*
X18340000Y26520000D03*
D24*
X18340000Y27670000D03*
D25*
X19840000Y26670000D03*
D24*
X18340000Y27170000D03*
X19940000Y27670000D03*
D26*
X20000000Y35050000D03*
D27*
X20650000Y34975000D03*
D28*
X21600000Y35050000D03*
D26*
X19350000Y35050000D03*
D28*
X18400000Y35050000D03*
D29*
X23300000Y38050000D03*
X16700000Y38050000D03*
D30*
X32035326Y23970969D03*
X31306884Y22930646D03*
X30578442Y21890323D03*
X29850000Y20850000D03*
X29121558Y19809677D03*
M02*
