G04 #@! TF.FileFunction,Copper,L4,Bot,Signal*
%FSLAX46Y46*%
G04 Gerber Fmt 4.6, Leading zero omitted, Abs format (unit mm)*
G04 Created by KiCad (PCBNEW 4.0.7) date 11/15/18 02:42:05*
%MOMM*%
%LPD*%
G01*
G04 APERTURE LIST*
%ADD10C,0.100000*%
%ADD11R,2.400000X1.200000*%
%ADD12R,2.800000X1.200000*%
%ADD13R,2.400000X3.000000*%
%ADD14R,0.500000X0.600000*%
%ADD15R,0.900000X0.800000*%
%ADD16R,0.800000X0.900000*%
%ADD17R,0.900000X1.100000*%
%ADD18R,1.600000X0.600000*%
%ADD19R,1.600000X1.000000*%
%ADD20R,1.680000X1.720000*%
%ADD21R,1.200000X1.100000*%
%ADD22R,0.750000X0.600000*%
%ADD23R,0.750000X0.300000*%
%ADD24R,0.550000X0.300000*%
%ADD25R,0.400000X2.000000*%
%ADD26R,0.400000X1.850000*%
%ADD27R,1.000000X2.000000*%
%ADD28C,1.589000*%
%ADD29C,1.010000*%
%ADD30C,0.864000*%
%ADD31C,1.586000*%
%ADD32C,0.974000*%
%ADD33C,0.762000*%
%ADD34C,0.762000*%
%ADD35C,0.508000*%
%ADD36C,0.889000*%
%ADD37C,0.635000*%
%ADD38C,0.254000*%
%ADD39C,0.381000*%
G04 APERTURE END LIST*
D10*
D11*
X16510000Y12432501D03*
X16510000Y10475001D03*
X16510000Y8517501D03*
X16510000Y6560001D03*
D10*
G36*
X27146497Y21700101D02*
X26510101Y22336497D01*
X27287919Y23114315D01*
X27924315Y22477919D01*
X27146497Y21700101D01*
X27146497Y21700101D01*
G37*
G36*
X28419289Y22972893D02*
X27782893Y23609289D01*
X28560711Y24387107D01*
X29197107Y23750711D01*
X28419289Y22972893D01*
X28419289Y22972893D01*
G37*
D12*
X13970000Y36280000D03*
X13970000Y33080000D03*
D13*
X16510000Y15500000D03*
D10*
G36*
X12632132Y11669188D02*
X14329188Y9972132D01*
X12207868Y7850812D01*
X10510812Y9547868D01*
X12632132Y11669188D01*
X12632132Y11669188D01*
G37*
G36*
X9917868Y10130812D02*
X8220812Y11827868D01*
X10342132Y13949188D01*
X12039188Y12252132D01*
X9917868Y10130812D01*
X9917868Y10130812D01*
G37*
D14*
X18580000Y16700000D03*
X18580000Y15600000D03*
X18580000Y14420476D03*
X18580000Y13320476D03*
X18580000Y12140952D03*
X18580000Y11040952D03*
X18580000Y9861428D03*
X18580000Y8761428D03*
X18580000Y7380000D03*
X18580000Y6280000D03*
D15*
X14690000Y19770000D03*
X14690000Y17970000D03*
D16*
X12250000Y16440000D03*
X14050000Y16440000D03*
D15*
X14690000Y22850000D03*
X14690000Y21050000D03*
D14*
X25850000Y37150000D03*
X25850000Y36050000D03*
D10*
G36*
X19130711Y23507107D02*
X19767107Y22870711D01*
X18989289Y22092893D01*
X18352893Y22729289D01*
X19130711Y23507107D01*
X19130711Y23507107D01*
G37*
G36*
X17857919Y22234315D02*
X18494315Y21597919D01*
X17716497Y20820101D01*
X17080101Y21456497D01*
X17857919Y22234315D01*
X17857919Y22234315D01*
G37*
G36*
X28202893Y31936497D02*
X27566497Y32572893D01*
X28344315Y33350711D01*
X28980711Y32714315D01*
X28202893Y31936497D01*
X28202893Y31936497D01*
G37*
G36*
X29475685Y33209289D02*
X28839289Y33845685D01*
X29617107Y34623503D01*
X30253503Y33987107D01*
X29475685Y33209289D01*
X29475685Y33209289D01*
G37*
G36*
X30959289Y16212893D02*
X30322893Y16849289D01*
X31100711Y17627107D01*
X31737107Y16990711D01*
X30959289Y16212893D01*
X30959289Y16212893D01*
G37*
G36*
X32232081Y17485685D02*
X31595685Y18122081D01*
X32373503Y18899899D01*
X33009899Y18263503D01*
X32232081Y17485685D01*
X32232081Y17485685D01*
G37*
G36*
X23827107Y24449289D02*
X23190711Y23812893D01*
X22412893Y24590711D01*
X23049289Y25227107D01*
X23827107Y24449289D01*
X23827107Y24449289D01*
G37*
G36*
X22554315Y25722081D02*
X21917919Y25085685D01*
X21140101Y25863503D01*
X21776497Y26499899D01*
X22554315Y25722081D01*
X22554315Y25722081D01*
G37*
D17*
X7300000Y16460000D03*
X7300000Y14660000D03*
X7250000Y24360000D03*
X7250000Y26160000D03*
D14*
X25000000Y37150000D03*
X25000000Y36050000D03*
D10*
G36*
X29250812Y27152132D02*
X30947868Y28849188D01*
X33069188Y26727868D01*
X31372132Y25030812D01*
X29250812Y27152132D01*
X29250812Y27152132D01*
G37*
G36*
X30877604Y12835418D02*
X30488695Y12446509D01*
X29357324Y13577880D01*
X29746233Y13966789D01*
X30877604Y12835418D01*
X30877604Y12835418D01*
G37*
G36*
X30311918Y12269732D02*
X29923009Y11880823D01*
X28791638Y13012194D01*
X29180547Y13401103D01*
X30311918Y12269732D01*
X30311918Y12269732D01*
G37*
G36*
X29746233Y11704047D02*
X29357324Y11315138D01*
X28225953Y12446509D01*
X28614862Y12835418D01*
X29746233Y11704047D01*
X29746233Y11704047D01*
G37*
G36*
X29180547Y11138362D02*
X28791638Y10749453D01*
X27660267Y11880824D01*
X28049176Y12269733D01*
X29180547Y11138362D01*
X29180547Y11138362D01*
G37*
G36*
X28614862Y10572676D02*
X28225953Y10183767D01*
X27094582Y11315138D01*
X27483491Y11704047D01*
X28614862Y10572676D01*
X28614862Y10572676D01*
G37*
G36*
X28049177Y10006991D02*
X27660268Y9618082D01*
X26528897Y10749453D01*
X26917806Y11138362D01*
X28049177Y10006991D01*
X28049177Y10006991D01*
G37*
G36*
X27483491Y9441305D02*
X27094582Y9052396D01*
X25963211Y10183767D01*
X26352120Y10572676D01*
X27483491Y9441305D01*
X27483491Y9441305D01*
G37*
G36*
X26917806Y8875620D02*
X26528897Y8486711D01*
X25397526Y9618082D01*
X25786435Y10006991D01*
X26917806Y8875620D01*
X26917806Y8875620D01*
G37*
G36*
X23735825Y8486711D02*
X23346916Y8875620D01*
X24478287Y10006991D01*
X24867196Y9618082D01*
X23735825Y8486711D01*
X23735825Y8486711D01*
G37*
G36*
X23170140Y9052396D02*
X22781231Y9441305D01*
X23912602Y10572676D01*
X24301511Y10183767D01*
X23170140Y9052396D01*
X23170140Y9052396D01*
G37*
G36*
X22604454Y9618082D02*
X22215545Y10006991D01*
X23346916Y11138362D01*
X23735825Y10749453D01*
X22604454Y9618082D01*
X22604454Y9618082D01*
G37*
G36*
X22038769Y10183767D02*
X21649860Y10572676D01*
X22781231Y11704047D01*
X23170140Y11315138D01*
X22038769Y10183767D01*
X22038769Y10183767D01*
G37*
G36*
X21473083Y10749453D02*
X21084174Y11138362D01*
X22215545Y12269733D01*
X22604454Y11880824D01*
X21473083Y10749453D01*
X21473083Y10749453D01*
G37*
G36*
X20907398Y11315138D02*
X20518489Y11704047D01*
X21649860Y12835418D01*
X22038769Y12446509D01*
X20907398Y11315138D01*
X20907398Y11315138D01*
G37*
G36*
X20341712Y11880823D02*
X19952803Y12269732D01*
X21084174Y13401103D01*
X21473083Y13012194D01*
X20341712Y11880823D01*
X20341712Y11880823D01*
G37*
G36*
X19776027Y12446509D02*
X19387118Y12835418D01*
X20518489Y13966789D01*
X20907398Y13577880D01*
X19776027Y12446509D01*
X19776027Y12446509D01*
G37*
G36*
X20907398Y14886028D02*
X20518489Y14497119D01*
X19387118Y15628490D01*
X19776027Y16017399D01*
X20907398Y14886028D01*
X20907398Y14886028D01*
G37*
G36*
X21473083Y15451713D02*
X21084174Y15062804D01*
X19952803Y16194175D01*
X20341712Y16583084D01*
X21473083Y15451713D01*
X21473083Y15451713D01*
G37*
G36*
X22038769Y16017398D02*
X21649860Y15628489D01*
X20518489Y16759860D01*
X20907398Y17148769D01*
X22038769Y16017398D01*
X22038769Y16017398D01*
G37*
G36*
X22604454Y16583084D02*
X22215545Y16194175D01*
X21084174Y17325546D01*
X21473083Y17714455D01*
X22604454Y16583084D01*
X22604454Y16583084D01*
G37*
G36*
X23170140Y17148769D02*
X22781231Y16759860D01*
X21649860Y17891231D01*
X22038769Y18280140D01*
X23170140Y17148769D01*
X23170140Y17148769D01*
G37*
G36*
X23735825Y17714455D02*
X23346916Y17325546D01*
X22215545Y18456917D01*
X22604454Y18845826D01*
X23735825Y17714455D01*
X23735825Y17714455D01*
G37*
G36*
X24301511Y18280140D02*
X23912602Y17891231D01*
X22781231Y19022602D01*
X23170140Y19411511D01*
X24301511Y18280140D01*
X24301511Y18280140D01*
G37*
G36*
X24867196Y18845826D02*
X24478287Y18456917D01*
X23346916Y19588288D01*
X23735825Y19977197D01*
X24867196Y18845826D01*
X24867196Y18845826D01*
G37*
G36*
X25786435Y18456917D02*
X25397526Y18845826D01*
X26528897Y19977197D01*
X26917806Y19588288D01*
X25786435Y18456917D01*
X25786435Y18456917D01*
G37*
G36*
X26352120Y17891231D02*
X25963211Y18280140D01*
X27094582Y19411511D01*
X27483491Y19022602D01*
X26352120Y17891231D01*
X26352120Y17891231D01*
G37*
G36*
X26917806Y17325546D02*
X26528897Y17714455D01*
X27660268Y18845826D01*
X28049177Y18456917D01*
X26917806Y17325546D01*
X26917806Y17325546D01*
G37*
G36*
X27483491Y16759860D02*
X27094582Y17148769D01*
X28225953Y18280140D01*
X28614862Y17891231D01*
X27483491Y16759860D01*
X27483491Y16759860D01*
G37*
G36*
X28049176Y16194175D02*
X27660267Y16583084D01*
X28791638Y17714455D01*
X29180547Y17325546D01*
X28049176Y16194175D01*
X28049176Y16194175D01*
G37*
G36*
X28614862Y15628489D02*
X28225953Y16017398D01*
X29357324Y17148769D01*
X29746233Y16759860D01*
X28614862Y15628489D01*
X28614862Y15628489D01*
G37*
G36*
X29180547Y15062804D02*
X28791638Y15451713D01*
X29923009Y16583084D01*
X30311918Y16194175D01*
X29180547Y15062804D01*
X29180547Y15062804D01*
G37*
G36*
X29746233Y14497119D02*
X29357324Y14886028D01*
X30488695Y16017399D01*
X30877604Y15628490D01*
X29746233Y14497119D01*
X29746233Y14497119D01*
G37*
G36*
X30074645Y17081091D02*
X29721091Y17434645D01*
X30145355Y17858909D01*
X30498909Y17505355D01*
X30074645Y17081091D01*
X30074645Y17081091D01*
G37*
G36*
X30852463Y17858909D02*
X30498909Y18212463D01*
X30923173Y18636727D01*
X31276727Y18283173D01*
X30852463Y17858909D01*
X30852463Y17858909D01*
G37*
G36*
X30313173Y19236727D02*
X30666727Y18883173D01*
X30242463Y18458909D01*
X29888909Y18812463D01*
X30313173Y19236727D01*
X30313173Y19236727D01*
G37*
G36*
X29535355Y18458909D02*
X29888909Y18105355D01*
X29464645Y17681091D01*
X29111091Y18034645D01*
X29535355Y18458909D01*
X29535355Y18458909D01*
G37*
G36*
X23538909Y8054645D02*
X23185355Y7701091D01*
X22761091Y8125355D01*
X23114645Y8478909D01*
X23538909Y8054645D01*
X23538909Y8054645D01*
G37*
G36*
X22761091Y8832463D02*
X22407537Y8478909D01*
X21983273Y8903173D01*
X22336827Y9256727D01*
X22761091Y8832463D01*
X22761091Y8832463D01*
G37*
D14*
X32290000Y21960000D03*
X32290000Y20860000D03*
D18*
X12650000Y18505000D03*
X12650000Y19775000D03*
X12650000Y21045000D03*
X12650000Y22315000D03*
D19*
X7150000Y22515000D03*
D18*
X7150000Y21045000D03*
X7150000Y19775000D03*
D19*
X7150000Y18305000D03*
D20*
X9770000Y24355000D03*
X9770000Y28485000D03*
D21*
X12620000Y26520000D03*
X12620000Y30020000D03*
D10*
G36*
X23245144Y25668231D02*
X23704763Y26127850D01*
X24807850Y25024763D01*
X24348231Y24565144D01*
X23245144Y25668231D01*
X23245144Y25668231D01*
G37*
G36*
X23916896Y26339982D02*
X24376515Y26799601D01*
X25479602Y25696514D01*
X25019983Y25236895D01*
X23916896Y26339982D01*
X23916896Y26339982D01*
G37*
G36*
X24588647Y27011734D02*
X25048266Y27471353D01*
X26151353Y26368266D01*
X25691734Y25908647D01*
X24588647Y27011734D01*
X24588647Y27011734D01*
G37*
G36*
X26497836Y25102545D02*
X26957455Y25562164D01*
X28060542Y24459077D01*
X27600923Y23999458D01*
X26497836Y25102545D01*
X26497836Y25102545D01*
G37*
G36*
X25154333Y23759042D02*
X25613952Y24218661D01*
X26717039Y23115574D01*
X26257420Y22655955D01*
X25154333Y23759042D01*
X25154333Y23759042D01*
G37*
D22*
X18340000Y26520000D03*
D23*
X18340000Y27670000D03*
D24*
X19840000Y26670000D03*
D23*
X18340000Y27170000D03*
X19940000Y27670000D03*
D25*
X20000000Y35050000D03*
D26*
X20650000Y34975000D03*
D27*
X21600000Y35050000D03*
D25*
X19350000Y35050000D03*
D27*
X18400000Y35050000D03*
D28*
X23300000Y38050000D03*
X16700000Y38050000D03*
D29*
X32035326Y23970969D03*
X31306884Y22930646D03*
X30578442Y21890323D03*
X29850000Y20850000D03*
X29121558Y19809677D03*
D30*
X19080000Y20920000D03*
D31*
X25252938Y13404099D03*
X29723263Y24883122D03*
D32*
X18290000Y29660000D03*
D31*
X21592039Y31295634D03*
D32*
X9093689Y26177483D03*
D30*
X17431000Y36626000D03*
X7088000Y30508000D03*
D32*
X10821000Y20441000D03*
D30*
X38232000Y14265000D03*
X36947000Y28837000D03*
D32*
X23050000Y35370000D03*
D31*
X9040000Y14636000D03*
D32*
X9127000Y20395000D03*
D30*
X20920000Y19080000D03*
D31*
X13940000Y12250000D03*
D30*
X3440000Y18300000D03*
X9492000Y7088000D03*
X21700000Y3440000D03*
X32912000Y9492000D03*
X36560000Y21700000D03*
X30508000Y32912000D03*
X20920000Y20920000D03*
X19080000Y19080000D03*
X25735000Y38232000D03*
X11163000Y36947000D03*
X1768000Y25735000D03*
X3053000Y11163000D03*
X14265000Y1768000D03*
X28837000Y3053000D03*
D31*
X26309182Y27548550D03*
X15475863Y26509423D03*
D30*
X33740000Y27520000D03*
X24398000Y35033000D03*
D31*
X10130000Y16990000D03*
D30*
X18300000Y31720000D03*
X4920000Y18300000D03*
X10539000Y8135000D03*
X21700000Y4920000D03*
X31865000Y10539000D03*
X35080000Y21700000D03*
X29461000Y31865000D03*
X8135000Y29461000D03*
X6260000Y12480000D03*
X15602000Y4967000D03*
X27520000Y6260000D03*
X35033000Y15602000D03*
X20000000Y21840000D03*
X18160000Y20000000D03*
X20000000Y18160000D03*
X21840000Y20000000D03*
X11570000Y33380000D03*
X4967000Y24398000D03*
D31*
X27075420Y14258169D03*
X24600000Y22590000D03*
D33*
X28860000Y14200000D03*
D30*
X27410050Y26287316D03*
D33*
X16111511Y17583231D03*
X27298000Y37683000D03*
X32275000Y31144000D03*
X31897000Y29496000D03*
X36560000Y17500000D03*
X36560000Y19200000D03*
X30663000Y30663000D03*
X35080000Y18300000D03*
X29942000Y6523000D03*
X35080000Y20000000D03*
X31144000Y7725000D03*
X29461000Y8135000D03*
X17500000Y3440000D03*
X30663000Y9337000D03*
X19200000Y3440000D03*
X18300000Y4911000D03*
X6523000Y10058000D03*
X20000000Y4920000D03*
X7725000Y8856000D03*
X8135000Y10539000D03*
X3440000Y22500000D03*
X9337000Y9337000D03*
X3440000Y20800000D03*
X4920000Y21700000D03*
X10058000Y33477000D03*
X4920000Y20000000D03*
X8856000Y32275000D03*
X22569000Y36626000D03*
X10532000Y31871000D03*
X20650000Y36600000D03*
X9337000Y30663000D03*
X38265000Y25687000D03*
X27526000Y33727000D03*
X37664000Y27344000D03*
X25953000Y34382000D03*
X35028000Y24385000D03*
X36937000Y11106000D03*
X34379000Y25960000D03*
X37683000Y12702000D03*
X25687000Y1735000D03*
X33727000Y12474000D03*
X27344000Y2336000D03*
X34382000Y14047000D03*
X11106000Y3063000D03*
X24385000Y4972000D03*
X12702000Y2317000D03*
X25960000Y5621000D03*
X1735000Y14313000D03*
X12474000Y6273000D03*
X2336000Y12656000D03*
X14047000Y5618000D03*
X3063000Y28894000D03*
X4972000Y15615000D03*
X2317000Y27298000D03*
X5621000Y14040000D03*
X14313000Y38265000D03*
X6273000Y27526000D03*
X12656000Y37664000D03*
X5618000Y25953000D03*
D30*
X13740000Y14470000D03*
D33*
X33477000Y29942000D03*
X28894000Y36937000D03*
D34*
X17787208Y21527208D02*
X19080000Y20920000D01*
D35*
X25252938Y12282628D02*
X25252938Y13404099D01*
X23541371Y9812536D02*
X25252938Y11524103D01*
X25252938Y11524103D02*
X25252938Y12282628D01*
X25252938Y14525570D02*
X25252938Y13404099D01*
X27854722Y17520000D02*
X25252938Y14918216D01*
X25252938Y14918216D02*
X25252938Y14525570D01*
X29121558Y19809677D02*
X29121558Y18786836D01*
X29121558Y18786836D02*
X27854722Y17520000D01*
X32302792Y18192792D02*
X32064331Y18431253D01*
X32064331Y18431253D02*
X30694383Y18431253D01*
X30694383Y18431253D02*
X30277818Y18847818D01*
X30277818Y18847818D02*
X30277818Y18852591D01*
X30277818Y18852591D02*
X29320732Y19809677D01*
X29320732Y19809677D02*
X29121558Y19809677D01*
D36*
X29723263Y24883122D02*
X29723263Y24899140D01*
X29723263Y24899140D02*
X31160000Y26335877D01*
X31160000Y26335877D02*
X31160000Y26940000D01*
D35*
X30877818Y18247818D02*
X30710000Y18415636D01*
X30710000Y18415636D02*
X30277818Y18847818D01*
D36*
X29723263Y24883122D02*
X29723263Y24993263D01*
X29723263Y24883122D02*
X29693122Y24883122D01*
X29693122Y24883122D02*
X28490000Y23680000D01*
D35*
X30887818Y18247818D02*
X30877818Y18247818D01*
X27850000Y17520000D02*
X27854722Y17520000D01*
X22372182Y8867818D02*
X22596653Y8867818D01*
X22596653Y8867818D02*
X23541371Y9812536D01*
D37*
X21592039Y31295634D02*
X21592039Y29124458D01*
X21592039Y29124458D02*
X24698249Y26018248D01*
D36*
X21592039Y31295634D02*
X21592039Y26047961D01*
X21592039Y26047961D02*
X21847208Y25792792D01*
D38*
X18407249Y27168239D02*
X17771988Y27168239D01*
X17771988Y27168239D02*
X17576247Y27363980D01*
X17576247Y27363980D02*
X17576247Y28016247D01*
X17576247Y28016247D02*
X18290000Y28730000D01*
X18290000Y28730000D02*
X18290000Y29660000D01*
D36*
X9770000Y28185000D02*
X9770000Y26853794D01*
X9770000Y26853794D02*
X9093689Y26177483D01*
X9093689Y26177483D02*
X7267483Y26177483D01*
X7267483Y26177483D02*
X7250000Y26160000D01*
D39*
X9076206Y26160000D02*
X9093689Y26177483D01*
D36*
X21600000Y31303595D02*
X21592039Y31295634D01*
X21600000Y32860000D02*
X21600000Y31303595D01*
X13940000Y12250000D02*
X13940000Y11340000D01*
X13940000Y11340000D02*
X12270000Y9670000D01*
D38*
X12550000Y19775000D02*
X14685000Y19775000D01*
X12550000Y21045000D02*
X14685000Y21045000D01*
X25000000Y36050000D02*
X23730000Y36050000D01*
X23730000Y36050000D02*
X23050000Y35370000D01*
X25850000Y36050000D02*
X25000000Y36050000D01*
D36*
X9040000Y14636000D02*
X7326000Y14636000D01*
X7326000Y14636000D02*
X7300000Y14610000D01*
D35*
X10821000Y20441000D02*
X11342000Y19775000D01*
X11342000Y19775000D02*
X12550000Y19775000D01*
X11342000Y21045000D02*
X12550000Y21045000D01*
X11342000Y21045000D02*
X10821000Y20441000D01*
D36*
X23045000Y35375000D02*
X21600000Y35375000D01*
X23045000Y35375000D02*
X23050000Y35370000D01*
D35*
X8477000Y21045000D02*
X9127000Y20395000D01*
X7250000Y21045000D02*
X8477000Y21045000D01*
X8507000Y19775000D02*
X9127000Y20395000D01*
X7250000Y19775000D02*
X8507000Y19775000D01*
X29612000Y34062000D02*
X29612000Y33808000D01*
X29612000Y33808000D02*
X30508000Y32912000D01*
D36*
X21600000Y33930000D02*
X21600000Y32860000D01*
X21600000Y35375000D02*
X21600000Y33930000D01*
D38*
X21630000Y33900000D02*
X21600000Y33930000D01*
X25000000Y37150000D02*
X24200000Y37150000D01*
X24200000Y37150000D02*
X23300000Y38050000D01*
X25850000Y37150000D02*
X25000000Y37150000D01*
D35*
X26070000Y25420000D02*
X26070000Y25990000D01*
X26070000Y25990000D02*
X25370000Y26690000D01*
X25320000Y24670000D02*
X26070000Y25420000D01*
X24710000Y24670000D02*
X25320000Y24670000D01*
X24033503Y25346497D02*
X24710000Y24670000D01*
X24026497Y25346497D02*
X24033503Y25346497D01*
D37*
X23120000Y24520000D02*
X23200000Y24520000D01*
X23200000Y24520000D02*
X24026497Y25346497D01*
X26309182Y27548550D02*
X26228550Y27548550D01*
X26228550Y27548550D02*
X25370000Y26690000D01*
D35*
X18393912Y26520000D02*
X15486440Y26520000D01*
D36*
X10355000Y24255000D02*
X12620000Y26520000D01*
X9770000Y24255000D02*
X10355000Y24255000D01*
X7250000Y24360000D02*
X9665000Y24360000D01*
X9665000Y24360000D02*
X9770000Y24255000D01*
X12620000Y26520000D02*
X15465286Y26520000D01*
X15465286Y26520000D02*
X15475863Y26509423D01*
X7250000Y24360000D02*
X7250000Y22515000D01*
X19060000Y22800000D02*
X19060000Y22780000D01*
D34*
X19060000Y22780000D02*
X20000000Y21840000D01*
D38*
X12250000Y16440000D02*
X12250000Y16448336D01*
X12250000Y16448336D02*
X12085102Y16283438D01*
X12085102Y16283438D02*
X10836562Y16283438D01*
X10836562Y16283438D02*
X10130000Y16990000D01*
D36*
X10130000Y16990000D02*
X10968003Y16151997D01*
X10968003Y16151997D02*
X10968003Y12818003D01*
X10968003Y12818003D02*
X10050000Y11900000D01*
D39*
X10490000Y16630000D02*
X10130000Y16990000D01*
D36*
X7250000Y18305000D02*
X8815000Y18305000D01*
X7300000Y16510000D02*
X7300000Y18255000D01*
D39*
X7300000Y18255000D02*
X7250000Y18305000D01*
D34*
X4920000Y18300000D02*
X7245000Y18300000D01*
X7245000Y18300000D02*
X7250000Y18305000D01*
D35*
X28268000Y32718000D02*
X28608000Y32718000D01*
X28608000Y32718000D02*
X29461000Y31865000D01*
D36*
X8815000Y18305000D02*
X10130000Y16990000D01*
D35*
X27075420Y13136698D02*
X27075420Y14258169D01*
X27075420Y12215215D02*
X27075420Y13136698D01*
X24107056Y9246851D02*
X27075420Y12215215D01*
X27531780Y14714529D02*
X27075420Y14258169D01*
X27531780Y14838220D02*
X27531780Y14714529D01*
X27075420Y14477956D02*
X27075420Y14258169D01*
X28986093Y16388629D02*
X27075420Y14477956D01*
D38*
X27217208Y22407208D02*
X28871039Y22407208D01*
X28871039Y22407208D02*
X29394477Y22930646D01*
X29394477Y22930646D02*
X30592707Y22930646D01*
X30592707Y22930646D02*
X31306884Y22930646D01*
X32290000Y21960000D02*
X32277530Y21960000D01*
X32277530Y21960000D02*
X31306884Y22930646D01*
X27248927Y22373292D02*
X27248927Y22375489D01*
X27248927Y22375489D02*
X27217208Y22407208D01*
D35*
X30110000Y17470000D02*
X30117615Y17470000D01*
X30117615Y17470000D02*
X30667615Y16920000D01*
X30667615Y16920000D02*
X31030000Y16920000D01*
X30110000Y17470000D02*
X30067464Y17470000D01*
X30067464Y17470000D02*
X28986093Y16388629D01*
X23150000Y8090000D02*
X23150000Y8289795D01*
X23150000Y8289795D02*
X24107056Y9246851D01*
D36*
X27217208Y22407208D02*
X27232792Y22407208D01*
D34*
X25935686Y23437308D02*
X25447308Y23437308D01*
X25447308Y23437308D02*
X24600000Y22590000D01*
X25935686Y23437308D02*
X25961540Y23437308D01*
X25961540Y23437308D02*
X26991640Y22407208D01*
X26991640Y22407208D02*
X27217208Y22407208D01*
D36*
X16990000Y35050000D02*
X15760000Y36280000D01*
X15760000Y36280000D02*
X13970000Y36280000D01*
X18400000Y35050000D02*
X16990000Y35050000D01*
D38*
X30117464Y15257259D02*
X30914022Y15257259D01*
X30914022Y15257259D02*
X33444348Y17787585D01*
X33444348Y17787585D02*
X33444348Y22561947D01*
X33444348Y22561947D02*
X32540325Y23465970D01*
X32540325Y23465970D02*
X32035326Y23970969D01*
X29850000Y20850000D02*
X32280000Y20850000D01*
X32280000Y20850000D02*
X32290000Y20860000D01*
X29551778Y15822944D02*
X28860000Y15131166D01*
X28860000Y15131166D02*
X28860000Y14200000D01*
X26723351Y18651371D02*
X27900000Y19828020D01*
X27900000Y19828020D02*
X27900000Y20604738D01*
X27900000Y20604738D02*
X29185585Y21890323D01*
X29185585Y21890323D02*
X29864265Y21890323D01*
X29864265Y21890323D02*
X30578442Y21890323D01*
X16204507Y20311380D02*
X16224507Y20311380D01*
X16204507Y21345201D02*
X16204507Y20311380D01*
X14699708Y22850000D02*
X16204507Y21345201D01*
X14690000Y22850000D02*
X14699708Y22850000D01*
X16224507Y20311380D02*
X20712943Y15822944D01*
X12550000Y22315000D02*
X14155000Y22315000D01*
X14155000Y22315000D02*
X14690000Y22850000D01*
X12550000Y18505000D02*
X12556259Y18498741D01*
X12556259Y18498741D02*
X13860207Y18498741D01*
X13860207Y18498741D02*
X14391473Y17967475D01*
X14391473Y17967475D02*
X14687475Y17967475D01*
X14687475Y17967475D02*
X14690000Y17970000D01*
X14690000Y17970000D02*
X14320784Y17970000D01*
X14320784Y17970000D02*
X14320784Y16710784D01*
X14320784Y16710784D02*
X14050000Y16440000D01*
X32275000Y31144000D02*
X27418316Y26287316D01*
X27418316Y26287316D02*
X27410050Y26287316D01*
X18580000Y15600000D02*
X16610000Y15600000D01*
X16610000Y15600000D02*
X16510000Y15500000D01*
X16111511Y17583231D02*
X16111511Y15898489D01*
X16111511Y15898489D02*
X16510000Y15500000D01*
X16111561Y17583181D02*
X16111511Y17583231D01*
X32244000Y33473000D02*
X32490000Y33246000D01*
X32490000Y33246000D02*
X32593000Y33148000D01*
X28760000Y35959000D02*
X28932000Y35864000D01*
X29411000Y35585000D02*
X29584000Y35479000D01*
X27470000Y36602000D02*
X27300000Y36670000D01*
X27300000Y36670000D02*
X27301000Y36670000D01*
X32932000Y31801000D02*
X32275000Y31144000D01*
X32593000Y33148000D02*
X32932000Y32814000D01*
X31522000Y34096000D02*
X31887000Y33789000D01*
X31149000Y34392000D02*
X31522000Y34096000D01*
X30769000Y34679000D02*
X31149000Y34392000D01*
X29584000Y35479000D02*
X29986000Y35223000D01*
X31887000Y33789000D02*
X32244000Y33473000D01*
X30381000Y34956000D02*
X30769000Y34679000D01*
X27913000Y36396000D02*
X28340000Y36183000D01*
X32932000Y32814000D02*
X32932000Y31801000D01*
X29986000Y35223000D02*
X30381000Y34956000D01*
X28340000Y36183000D02*
X28760000Y35959000D01*
X27481000Y36597000D02*
X27470000Y36602000D01*
X27470000Y36602000D02*
X27913000Y36396000D01*
X27298000Y37683000D02*
X27301000Y37680000D01*
X27301000Y37680000D02*
X27301000Y36670000D01*
X29411000Y35585000D02*
X28932000Y35864000D01*
D36*
X12620000Y30020000D02*
X12620000Y31693162D01*
X12620000Y31693162D02*
X13970000Y33043162D01*
X13970000Y33043162D02*
X13970000Y33080000D01*
D38*
X18580000Y14420476D02*
X18933431Y14420476D01*
X18933431Y14420476D02*
X20147258Y13206649D01*
X18580000Y12140952D02*
X18684237Y12036715D01*
X18684237Y12036715D02*
X20108695Y12036715D01*
X20108695Y12036715D02*
X20712943Y12640963D01*
X18580000Y9861428D02*
X20196149Y9861428D01*
X20196149Y9861428D02*
X21844314Y11509593D01*
X19940000Y27670000D02*
X19940000Y27596020D01*
X19940000Y27596020D02*
X20523488Y27012532D01*
X20523488Y27012532D02*
X20523488Y23745253D01*
X20523488Y23745253D02*
X23366457Y20902284D01*
X23366457Y20902284D02*
X23366457Y19957656D01*
X23366457Y19957656D02*
X24107056Y19217057D01*
X19962981Y27673175D02*
X20000000Y27710194D01*
X20000000Y27710194D02*
X20000000Y34201822D01*
X20000000Y34201822D02*
X20000000Y35250000D01*
X19350000Y35250000D02*
X19349531Y35249531D01*
X19349531Y35249531D02*
X19349531Y28284186D01*
X22740000Y19452742D02*
X23541371Y18651371D01*
X19349531Y28284186D02*
X19146781Y28081436D01*
X19146781Y28081436D02*
X19146781Y27361080D01*
X19146781Y27361080D02*
X19898536Y26609325D01*
X19898536Y26609325D02*
X19898536Y23481464D01*
X22740000Y20640000D02*
X22740000Y19452742D01*
X19898536Y23481464D02*
X22740000Y20640000D01*
D35*
X29500000Y18070000D02*
X29500000Y18033908D01*
X29500000Y18033908D02*
X28420407Y16954315D01*
D38*
X18580000Y7380000D02*
X18846093Y7380000D01*
X18846093Y7380000D02*
X22410000Y10943907D01*
X18580000Y13320476D02*
X18031533Y13320476D01*
X18031533Y13320476D02*
X17191057Y12480000D01*
X17191057Y12480000D02*
X16510000Y12480000D01*
X15690000Y12480000D02*
X13740000Y14430000D01*
X13740000Y14430000D02*
X13740000Y14470000D01*
X16510000Y12480000D02*
X15690000Y12480000D01*
X36165000Y12944000D02*
X35986000Y12547000D01*
X36911000Y14990000D02*
X36782000Y14573000D01*
X37030000Y15409000D02*
X36911000Y14990000D01*
X37323000Y16682000D02*
X37236000Y16255000D01*
X37236000Y16255000D02*
X37138000Y15831000D01*
X37138000Y15831000D02*
X37030000Y15409000D01*
X36643000Y14161000D02*
X36494000Y13751000D01*
X36494000Y13751000D02*
X36334000Y13346000D01*
X36334000Y13346000D02*
X36165000Y12944000D01*
X36782000Y14573000D02*
X36643000Y14161000D01*
X37400000Y17111000D02*
X37323000Y16682000D01*
X37466000Y17542000D02*
X37400000Y17111000D01*
X37521000Y17974000D02*
X37466000Y17542000D01*
X37600000Y18841000D02*
X37566000Y18407000D01*
X37623000Y19276000D02*
X37600000Y18841000D01*
X37635000Y19712000D02*
X37623000Y19276000D01*
X37637000Y20148000D02*
X37635000Y19712000D01*
X37628000Y20583000D02*
X37637000Y20148000D01*
X37608000Y21018000D02*
X37628000Y20583000D01*
X37578000Y21453000D02*
X37608000Y21018000D01*
X37422000Y22750000D02*
X37485000Y22319000D01*
X37349000Y23180000D02*
X37422000Y22750000D01*
X37265000Y23607000D02*
X37349000Y23180000D01*
X37066000Y24455000D02*
X37171000Y24033000D01*
X36689000Y25707000D02*
X36825000Y25293000D01*
X36825000Y25293000D02*
X36951000Y24876000D01*
X36951000Y24876000D02*
X37066000Y24455000D01*
X36543000Y26117000D02*
X36689000Y25707000D01*
X37537000Y21887000D02*
X37578000Y21453000D01*
X37485000Y22319000D02*
X37537000Y21887000D01*
X35664000Y28108000D02*
X35859000Y27719000D01*
X37566000Y18407000D02*
X37521000Y17974000D01*
X35458000Y28493000D02*
X35664000Y28108000D01*
X35859000Y27719000D02*
X36045000Y27325000D01*
X36045000Y27325000D02*
X36221000Y26927000D01*
X36221000Y26927000D02*
X36387000Y26524000D01*
X36387000Y26524000D02*
X36543000Y26117000D01*
X37171000Y24033000D02*
X37265000Y23607000D01*
X35986000Y12547000D02*
X35797000Y12155000D01*
X35797000Y12155000D02*
X35598000Y11767000D01*
X18580000Y6280000D02*
X16710000Y6280000D01*
X16710000Y6280000D02*
X16510000Y6480000D01*
X16579690Y2703435D02*
X16579690Y6410310D01*
X16579690Y6410310D02*
X16510000Y6480000D01*
X16580000Y2703745D02*
X16936000Y2630000D01*
X17366000Y2560000D02*
X16936000Y2630000D01*
X18665000Y2413000D02*
X18231000Y2451000D01*
X19100000Y2385000D02*
X18665000Y2413000D01*
X19535000Y2368000D02*
X19100000Y2385000D01*
X19970000Y2362000D02*
X19535000Y2368000D01*
X20406000Y2367000D02*
X19970000Y2362000D01*
X20841000Y2382000D02*
X20406000Y2367000D01*
X21276000Y2408000D02*
X20841000Y2382000D01*
X21710000Y2445000D02*
X21276000Y2408000D01*
X22143000Y2493000D02*
X21710000Y2445000D01*
X22575000Y2551000D02*
X22143000Y2493000D01*
X23005000Y2620000D02*
X22575000Y2551000D01*
X25123000Y3123000D02*
X24705000Y3001000D01*
X25539000Y3254000D02*
X25123000Y3123000D01*
X25951000Y3396000D02*
X25539000Y3254000D01*
X26359000Y3548000D02*
X25951000Y3396000D01*
X26763000Y3710000D02*
X26359000Y3548000D01*
X27164000Y3882000D02*
X26763000Y3710000D01*
X27559000Y4064000D02*
X27164000Y3882000D01*
X27951000Y4256000D02*
X27559000Y4064000D01*
X28337000Y4457000D02*
X27951000Y4256000D01*
X28718000Y4668000D02*
X28337000Y4457000D01*
X29095000Y4888000D02*
X28718000Y4668000D01*
X29830000Y5355000D02*
X29465000Y5117000D01*
X30188000Y5602000D02*
X29830000Y5355000D01*
X30541000Y5858000D02*
X30188000Y5602000D01*
X30887000Y6123000D02*
X30541000Y5858000D01*
X32203000Y7265000D02*
X31884000Y6967000D01*
X31884000Y6967000D02*
X31559000Y6678000D01*
X31559000Y6678000D02*
X31226000Y6396000D01*
X31226000Y6396000D02*
X30887000Y6123000D01*
X32513000Y7570000D02*
X32203000Y7265000D01*
X33112000Y8203000D02*
X32817000Y7883000D01*
X32817000Y7883000D02*
X32513000Y7570000D01*
X34212000Y9554000D02*
X33949000Y9206000D01*
X33949000Y9206000D02*
X33679000Y8865000D01*
X33679000Y8865000D02*
X33399000Y8531000D01*
X33399000Y8531000D02*
X33112000Y8203000D01*
X34465000Y9908000D02*
X34212000Y9554000D01*
X17798000Y2500000D02*
X17366000Y2560000D01*
X18231000Y2451000D02*
X17798000Y2500000D01*
X23434000Y2700000D02*
X23005000Y2620000D01*
X23860000Y2790000D02*
X23434000Y2700000D01*
X24284000Y2890000D02*
X23860000Y2790000D01*
X24705000Y3001000D02*
X24284000Y2890000D01*
X35598000Y11767000D02*
X35390000Y11384000D01*
X35390000Y11384000D02*
X35173000Y11007000D01*
X29465000Y5117000D02*
X29095000Y4888000D01*
X35173000Y11007000D02*
X34946000Y10635000D01*
X34946000Y10635000D02*
X34710000Y10269000D01*
X34710000Y10269000D02*
X34465000Y9908000D01*
X16579690Y2703435D02*
X16580000Y2703745D01*
X35244000Y28872000D02*
X35458000Y28493000D01*
X34545000Y29976000D02*
X34787000Y29614000D01*
X34787000Y29614000D02*
X35020000Y29246000D01*
X35020000Y29246000D02*
X35244000Y28872000D01*
X33511000Y29976000D02*
X33477000Y29942000D01*
X33511000Y29976000D02*
X34545000Y29976000D01*
X37818000Y23737000D02*
X37696000Y24277000D01*
X37979000Y17134000D02*
X38057000Y17681000D01*
X38084000Y22098000D02*
X38012000Y22647000D01*
X37883000Y16588000D02*
X37979000Y17134000D01*
X38119000Y18231000D02*
X38165000Y18783000D01*
X37160000Y13920000D02*
X37337000Y14444000D01*
X37498000Y14974000D02*
X37643000Y15508000D01*
X36145000Y28412000D02*
X35882000Y28899000D01*
X37771000Y16046000D02*
X37883000Y16588000D01*
X31312000Y35421000D02*
X30905000Y35711000D01*
X32862000Y34154000D02*
X32487000Y34485000D01*
X38178000Y20996000D02*
X38140000Y21548000D01*
X37337000Y14444000D02*
X37498000Y14974000D01*
X35604000Y29378000D02*
X35312000Y29848000D01*
X37233000Y25871000D02*
X37047000Y26392000D01*
X37643000Y15508000D02*
X37771000Y16046000D01*
X38057000Y17681000D02*
X38119000Y18231000D01*
X38140000Y21548000D02*
X38084000Y22098000D01*
X38165000Y18783000D02*
X38193000Y19336000D01*
X30490000Y35991000D02*
X30068000Y36261000D01*
X38193000Y19336000D02*
X38205000Y19889000D01*
X38205000Y19889000D02*
X38200000Y20442000D01*
X38012000Y22647000D02*
X37923000Y23193000D01*
X38200000Y20442000D02*
X38178000Y20996000D01*
X37923000Y23193000D02*
X37818000Y23737000D01*
X37696000Y24277000D02*
X37558000Y24813000D01*
X37558000Y24813000D02*
X37404000Y25344000D01*
X37404000Y25344000D02*
X37233000Y25871000D01*
X34352000Y31202000D02*
X34004000Y31633000D01*
X37047000Y26392000D02*
X36845000Y26907000D01*
X36845000Y26907000D02*
X36627000Y27416000D01*
X36627000Y27416000D02*
X36394000Y27918000D01*
X30905000Y35711000D02*
X30490000Y35991000D01*
X36394000Y27918000D02*
X36145000Y28412000D01*
X35882000Y28899000D02*
X35604000Y29378000D01*
X35312000Y29848000D02*
X35006000Y30309000D01*
X35006000Y30309000D02*
X34685000Y30760000D01*
X34685000Y30760000D02*
X34352000Y31202000D01*
X34004000Y31633000D02*
X34004000Y33030000D01*
X34004000Y33030000D02*
X33933000Y33101000D01*
X33933000Y33101000D02*
X33586000Y33461000D01*
X33586000Y33461000D02*
X33228000Y33812000D01*
X33228000Y33812000D02*
X32862000Y34154000D01*
X32487000Y34485000D02*
X32104000Y34807000D01*
X32104000Y34807000D02*
X31712000Y35119000D01*
X31712000Y35119000D02*
X31312000Y35421000D01*
X29639000Y36519000D02*
X29250000Y36738000D01*
X36968000Y13401000D02*
X37160000Y13920000D01*
X36759000Y12888000D02*
X36968000Y13401000D01*
X30068000Y36261000D02*
X29639000Y36519000D01*
X29250000Y36740000D02*
X29250000Y36738000D01*
X18580000Y8761428D02*
X16791428Y8761428D01*
X16791428Y8761428D02*
X16510000Y8480000D01*
X13231000Y5958000D02*
X13231000Y3101000D01*
X28738000Y4029000D02*
X29220000Y4302000D01*
X16510000Y8480000D02*
X15753000Y8480000D01*
X26736000Y3087000D02*
X27247000Y3299000D01*
X21364000Y1846000D02*
X21916000Y1895000D01*
X13747000Y2902000D02*
X14269000Y2720000D01*
X17499000Y1967000D02*
X18048000Y1899000D01*
X15753000Y8480000D02*
X13231000Y5958000D01*
X15867000Y2270000D02*
X16408000Y2152000D01*
X14269000Y2720000D02*
X14797000Y2554000D01*
X13231000Y3101000D02*
X13230000Y3100000D01*
X16952000Y2051000D02*
X17499000Y1967000D01*
X13230000Y3100000D02*
X13747000Y2902000D01*
X35773000Y10908000D02*
X36042000Y11391000D01*
X25696000Y2708000D02*
X26219000Y2890000D01*
X14797000Y2554000D02*
X15330000Y2404000D01*
X21916000Y1895000D02*
X22465000Y1962000D01*
X15330000Y2404000D02*
X15867000Y2270000D01*
X24098000Y2262000D02*
X24635000Y2394000D01*
X16408000Y2152000D02*
X16952000Y2051000D01*
X32729000Y6984000D02*
X33119000Y7377000D01*
X19152000Y1814000D02*
X19705000Y1797000D01*
X18048000Y1899000D02*
X18600000Y1848000D01*
X29693000Y4589000D02*
X30157000Y4891000D01*
X18600000Y1848000D02*
X19152000Y1814000D01*
X19705000Y1797000D02*
X20259000Y1796000D01*
X24635000Y2394000D02*
X25168000Y2543000D01*
X20259000Y1796000D02*
X20812000Y1813000D01*
X36296000Y11883000D02*
X36535000Y12382000D01*
X34214000Y8624000D02*
X34553000Y9062000D01*
X20812000Y1813000D02*
X21364000Y1846000D01*
X22465000Y1962000D02*
X23012000Y2045000D01*
X23012000Y2045000D02*
X23557000Y2145000D01*
X23557000Y2145000D02*
X24098000Y2262000D01*
X35489000Y10433000D02*
X35773000Y10908000D01*
X27752000Y3527000D02*
X28249000Y3770000D01*
X25168000Y2543000D02*
X25696000Y2708000D01*
X26219000Y2890000D02*
X26736000Y3087000D01*
X27247000Y3299000D02*
X27752000Y3527000D01*
X28249000Y3770000D02*
X28738000Y4029000D01*
X33862000Y8197000D02*
X34214000Y8624000D01*
X29220000Y4302000D02*
X29693000Y4589000D01*
X30157000Y4891000D02*
X30611000Y5207000D01*
X30611000Y5207000D02*
X31056000Y5536000D01*
X31056000Y5536000D02*
X31491000Y5879000D01*
X31491000Y5879000D02*
X31915000Y6235000D01*
X31915000Y6235000D02*
X32327000Y6603000D01*
X33496000Y7782000D02*
X33862000Y8197000D01*
X32327000Y6603000D02*
X32729000Y6984000D01*
X33119000Y7377000D02*
X33496000Y7782000D01*
X34553000Y9062000D02*
X34879000Y9509000D01*
X34879000Y9509000D02*
X35191000Y9966000D01*
X35191000Y9966000D02*
X35489000Y10433000D01*
X36042000Y11391000D02*
X36296000Y11883000D01*
X36535000Y12382000D02*
X36759000Y12888000D01*
X28900000Y36940000D02*
X29250000Y36740000D01*
X29250000Y36738000D02*
X29203000Y36765000D01*
X18580000Y11040952D02*
X17828007Y11040952D01*
X17828007Y11040952D02*
X17267054Y10479999D01*
X17267054Y10479999D02*
X16510000Y10479999D01*
X18580000Y16700000D02*
X18704517Y16700000D01*
X18704517Y16700000D02*
X20147258Y15257259D01*
M02*
